<svg xml:space="preserve" id="OBJECTS" x="0" y="0" version="1.1" viewBox="0 0 412 271">
  <style>
    .st0{fill:#fff}
  </style>
  <text class="st0" font-family="Raleway-Bold" font-size="56.7" letter-spacing="11" transform="translate(0 270)">VIEWPOINT</text>
  <path d="M207 180c-12 0-23-2-34-8a83 83 0 1 1 34 8zm0-152a69 69 0 1 0 0 138 69 69 0 0 0 0-138z" class="st0"/>
  <path d="M150 69a64 64 0 0 0 2 60l45-52-47-8zm54-36c-22 1-42 14-52 33l68 12-16-45zm61 93a64 64 0 0 0-2-61l-45 53 47 8zm-4-63a63 63 0 0 0-54-30l23 66 31-36zm-107 69a64 64 0 0 0 55 29l-25-65-30 36zm58 29c21-1 41-14 51-33l-68-12 17 45z" class="st0"/>
  <path fill="#fff" stroke="#fff" stroke-miterlimit="10" d="M381 97C200-109 44 84 34 97h-1l1 1h-1 1c180 206 337 13 347 0v-1zm-20 1h-1c-9 12-147 181-306 0v-1c10-11 147-181 306 0h1v1z"/>
</svg>
