<svg xml:space="preserve" id="Layer_1" x="0" y="0" version="1.1" viewBox="0 0 553 205"><path d="M127 180c-3 3-7 5-12 5s-10-2-13-6-4-10-4-20c0-8 1-14 4-18 3-5 8-8 14-8l8 2c3 1 4 3 5 5l3 6 24-5c-3-10-8-17-14-21-7-5-15-7-27-7-14 0-25 4-33 12l-6 7 2 8h-5c-2 4-2 9-3 14l8 8c2 4 3 8 3 13 0 4-1 9-3 13 4 6 9 11 15 13 6 3 14 4 24 4 8 0 14-1 19-3 6-2 10-6 13-10 4-6 7-11 8-17l-24-8c-1 6-3 10-6 13zM275 138v-24h-28v32h-30v-32h-27v90h27v-36h30v36h28v-24c-2-6-4-13-4-21s2-15 4-21zM510 182v-68h-28v25c2 6 3 12 3 19 0 8-1 15-3 21v25h71v-22h-43zM473 125c-6-6-14-10-24-11a72 72 0 0 1-45 12c-8 8-12 19-12 33 0 11 2 19 7 26 3 7 9 12 16 15 6 4 15 5 25 5s18-2 25-5a37 37 0 0 0 17-21v-40c-2-5-5-10-9-14zm-21 54c-3 4-8 6-13 6-6 0-11-2-14-6s-5-11-5-20 2-15 5-19 8-6 13-6c6 0 11 2 14 6 4 3 5 10 5 18 0 10-1 17-5 21z" class="st0"/><path d="M482 139v40c2-6 3-13 3-21 0-7-1-13-3-19zM318 113c-15 0-26 4-34 12-4 4-7 8-9 13v42l3 5c3 7 9 12 16 15 6 4 15 5 25 5s18-2 25-5c6-4 11-9 15-16 3-7 5-15 5-26 0-14-4-25-12-33s-20-12-34-12zm13 66c-3 4-8 6-13 6-6 0-11-2-14-6s-5-11-5-20 2-15 5-19 8-6 13-6c6 0 11 2 14 6 4 3 5 10 5 18 0 10-1 17-5 21zM271 159c0 8 2 15 4 21v-42c-2 6-4 13-4 21zM70 159v-5l-4-2c-5-3-14-6-26-8l-9-3-2-4 2-5c2-2 4-2 8-2 3-1 7 0 9 2s3 5 4 9l21-1 3-8c-1-5-4-10-9-13-6-4-14-6-26-6-9 0-16 1-22 3-5 2-9 6-12 10-2 4-4 8-4 13 0 7 3 13 8 17 5 5 14 9 26 11l14 5a8 8 0 0 1 0 13c-2 2-5 3-9 3-5 0-10-2-12-6-2-2-3-5-4-9l-26 1c1 9 4 17 10 23 6 5 16 8 32 8 8 0 15-1 21-3a30 30 0 0 0 15-14l-1-2c-5-7-7-16-7-27z" class="st0"/><path d="m78 140-2-8-3 8h5zM78 162l-8-8v5c0 11 2 20 7 27l1 2c2-4 3-9 3-13 0-5-1-9-3-13zM34 61h2l7 2c2 1 3 4 5 7l15 28h31L81 72l-4-6-4-4-8-4c4 0 7-2 10-3 8-5 12-13 12-22 0-5-1-10-4-14s-7-7-11-9L52 8H6v90h28V61zm0-35h12c5 0 9 1 11 3 3 3 3 8 1 11-2 2-3 3-5 3l-7 1H34V26zM361 65l3-9-1-1c-2-4-6-7-11-10l-26-8-10-3-2-4c0-2 1-3 3-5l7-2c4 0 7 1 9 3s4 5 5 9l26-2c-1-9-5-16-11-20s-15-6-26-6c-9 0-17 1-22 3s-9 5-12 10c-3 3-4 8-4 13 0 6 3 13 8 17 5 5 13 8 26 11 7 1 12 3 14 5a8 8 0 0 1 0 13c-3 2-6 3-10 3-5 0-9-2-12-6-2-2-3-5-3-10l-27 2c1 9 5 16 10 22s17 9 32 9c9 0 16-1 22-4l11-8c-1-7-1-14 1-22z" class="st0"/><path d="M406 124c13 1 27-3 40-11l3 1 4-3c28-22 37-58 19-82s-55-26-84-4c-11 8-19 19-24 31l1 3c-3 8-4 17-3 26l-2 2c1 7 4 14 9 20 8 11 21 18 35 19l1-1 1-1zm-34-19c-8-11-11-25-7-39 3-15 12-28 26-38 12-10 27-14 41-14 15 0 29 6 37 17 17 22 8 56-19 77-26 20-62 19-78-3z" class="st0"/><path d="m449 114-3-1c-13 8-27 12-40 11l-2 1v1h6c13 0 27-4 39-12zM365 59l-1-3a56 56 0 0 0-4 31l2-2c-1-9 0-18 3-26zM422 63c3 0 7 0 12-2 3-2 5-2 7-2l3 4-3 4-6 1-4-3-9 7c3 3 6 5 10 6 3 1 8-1 13-5l7-7c2-2 2-4 2-7l-2-7-5-4h-6l-12 3c-2 1-3 2-4 1h-2v-3l2-2v-1c3-2 6-1 8 1l9-7c-3-3-6-4-9-4s-7 1-11 4l-7 7c-2 2-2 4-2 6l2 6c1 2 4 4 7 4zM419 89l1-8-5-9-13-18-10 7 14 20c2 1 2 3 3 5l-2 3h-4l-3-3-9 8 7 5 6 1 9-4c3-2 5-4 6-7z" class="st0"/></svg>